<svg xmlns="http://www.w3.org/2000/svg" xmlns:se="http://svg-edit.googlecode.com"
 xmlns:xlink="http://www.w3.org/1999/xlink" xmlns:dc="http://purl.org/dc/elements/1.1/"
  xmlns:cc="http://creativecommons.org/ns#" xmlns:rdf="http://www.w3.org/1999/02/22-rdf-syntax-ns#" 
  xmlns:inkscape="http://www.inkscape.org/namespaces/inkscape" viewBox="0 0 100 100" style="">
                                    <title>my vector image</title>
                                    
                                
                                <g style="" class="currentLayer"><title>Layer 1</title><path fill="#ffffff" fill-opacity="1" stroke="#444444" stroke-opacity="1" stroke-width="8" stroke-dasharray="none" stroke-linejoin="round" stroke-linecap="butt" stroke-dashoffset="" fill-rule="nonzero" opacity="1" marker-start="" marker-mid="" marker-end="" d="M18.062016037993203,82.17054506554848L75.42635881960251,21.39534946989753" id="svg_1" class=""/><path fill="#ffffff" fill-opacity="1" stroke="#222222" stroke-opacity="1" stroke-width="3" stroke-dasharray="none" stroke-linejoin="round" stroke-linecap="butt" stroke-dashoffset="" fill-rule="nonzero" opacity="1" marker-start="" marker-mid="" marker-end="" d="M125,16 C125,16 125,16 125,16 C125,16 125,16 125,16 C125,16 125,16 125,16 C125,16 125,16 125,16 Z" id="svg_6"/><path fill="#ffffff" fill-opacity="0" stroke="#444444" stroke-opacity="1" stroke-width="8" stroke-dasharray="none" stroke-linejoin="round" stroke-linecap="butt" stroke-dashoffset="" fill-rule="nonzero" opacity="1" marker-start="" marker-mid="" marker-end="" d="M5,86 C5,81.02762430939227 9.027624309392266,77 14,77 C18.972375690607734,77 23,81.02762430939227 23,86 C23,90.97237569060773 18.972375690607734,95 14,95 C9.027624309392266,95 5,90.97237569060773 5,86 Z" id="svg_8" class=""/><path fill="#ffffff" stroke="#444444" stroke-opacity="1" stroke-width="8" stroke-dasharray="none" stroke-linejoin="round" stroke-linecap="butt" stroke-dashoffset="" fill-rule="nonzero" opacity="1" marker-start="" marker-mid="" marker-end="" d="M71.01550388336182,17.705426454544067 C71.01550388336182,12.733050763936333 75.04312819275408,8.705426454544067 80.01550388336182,8.705426454544067 C84.98787957396955,8.705426454544067 89.01550388336182,12.733050763936333 89.01550388336182,17.705426454544067 C89.01550388336182,22.6778021451518 84.98787957396955,26.705426454544067 80.01550388336182,26.705426454544067 C75.04312819275408,26.705426454544067 71.01550388336182,22.6778021451518 71.01550388336182,17.705426454544067 z" id="svg_10" class="" fill-opacity="0"/><path fill="#ffffff" fill-opacity="1" stroke="#222222" stroke-opacity="1" stroke-width="8" stroke-dasharray="none" stroke-linejoin="round" stroke-linecap="butt" stroke-dashoffset="" fill-rule="nonzero" opacity="1" marker-start="" marker-mid="" marker-end="" d="M83,21 C83,21 83,21 83,21 C83,21 83,21 83,21 C83,21 83,21 83,21 C83,21 83,21 83,21 Z" id="svg_12"/></g>
                                </svg>