<svg id="svg" version="1.1" width="400" height="290.90909090909093" viewBox="0 0 400 290.90909090909093" xmlns="http://www.w3.org/2000/svg" xmlns:xlink="http://www.w3.org/1999/xlink" ><g id="svgg"><path id="path0" d="M0.000 145.455 L 0.000 290.909 84.436 290.879 C 141.450 290.859,168.542 290.755,167.855 290.558 C 160.643 288.490,149.812 283.366,145.032 279.761 C 143.684 278.744,141.249 277.211,139.622 276.356 C 134.322 273.570,133.014 271.018,134.698 266.746 C 135.022 265.925,135.425 264.256,135.594 263.038 C 136.264 258.227,137.959 256.699,143.085 256.286 C 145.192 256.117,146.878 255.788,148.360 255.257 C 151.178 254.248,153.114 254.372,155.714 255.728 C 157.379 256.597,157.836 256.693,161.309 256.903 C 169.325 257.388,174.013 259.988,183.562 269.245 C 189.550 275.048,191.793 276.655,193.908 276.655 C 195.140 276.655,202.466 269.432,207.207 263.544 C 211.235 258.541,214.313 255.987,223.564 249.972 C 230.384 245.536,231.777 245.041,234.880 245.943 C 238.302 246.937,239.808 249.184,239.836 253.334 C 239.859 256.724,239.883 256.749,245.255 258.895 C 248.973 260.380,249.335 260.467,252.674 260.666 C 262.594 261.258,262.977 269.157,253.267 272.887 C 248.935 274.550,234.948 279.181,231.739 280.015 C 228.135 280.950,227.204 281.563,226.604 283.400 C 225.568 286.572,223.507 287.690,215.418 289.466 C 213.178 289.958,211.084 290.475,210.764 290.615 C 210.430 290.761,250.620 290.878,305.091 290.889 L 400.000 290.909 400.000 145.455 L 400.000 0.000 200.000 0.000 L 0.000 0.000 0.000 145.455 " stroke="none" fill="#6363fb" fill-rule="evenodd"></path><path id="path1" d="M231.418 245.724 C 229.839 246.075,228.127 247.000,223.577 249.961 C 214.302 255.996,211.235 258.541,207.207 263.544 C 202.466 269.432,195.140 276.655,193.908 276.655 C 191.793 276.655,189.550 275.048,183.562 269.245 C 174.013 259.988,169.325 257.388,161.309 256.903 C 157.836 256.693,157.379 256.597,155.714 255.728 C 153.114 254.372,151.178 254.248,148.360 255.257 C 146.878 255.788,145.192 256.117,143.085 256.286 C 137.959 256.699,136.264 258.227,135.594 263.038 C 135.425 264.256,135.022 265.925,134.698 266.746 C 133.016 271.012,134.323 273.570,139.603 276.346 C 141.220 277.196,143.713 278.768,145.144 279.840 C 148.597 282.426,153.300 284.938,158.982 287.230 C 161.542 288.263,164.095 289.304,164.655 289.543 C 167.844 290.905,168.216 290.924,189.964 290.835 L 210.473 290.751 214.982 289.663 C 223.795 287.536,225.564 286.583,226.604 283.400 C 227.204 281.563,228.135 280.950,231.739 280.015 C 238.510 278.257,254.741 272.542,256.962 271.133 C 260.159 269.106,261.026 265.291,258.852 262.815 C 257.434 261.201,256.564 260.898,252.674 260.666 C 249.335 260.467,248.973 260.380,245.255 258.895 C 239.883 256.749,239.859 256.724,239.836 253.334 C 239.800 248.027,236.102 244.684,231.418 245.724 " stroke="none" fill="#f9f9fa" fill-rule="evenodd"></path></g></svg>