<svg id="svg" version="1.1" width="400" height="290.90909090909093" viewBox="0 0 400 290.90909090909093" xmlns="http://www.w3.org/2000/svg" xmlns:xlink="http://www.w3.org/1999/xlink" ><g id="svgg"><path id="path0" d="M0.000 145.455 L 0.000 290.909 55.345 290.889 C 85.785 290.879,110.429 290.760,110.109 290.626 C 109.789 290.492,108.812 290.093,107.938 289.738 C 102.120 287.380,96.291 281.267,96.291 277.525 C 96.291 273.306,99.523 270.771,107.296 268.894 C 114.744 267.095,116.079 266.707,116.738 266.147 C 117.645 265.376,116.950 264.890,114.068 264.280 C 106.869 262.755,104.831 261.949,102.644 259.762 C 99.261 256.379,99.735 250.972,103.587 249.006 C 105.342 248.111,107.773 247.917,121.891 247.545 C 137.622 247.130,139.340 247.207,144.727 248.569 C 147.704 249.321,149.935 249.681,153.018 249.904 C 163.941 250.694,164.481 250.864,168.292 254.700 L 170.974 257.399 177.320 260.484 C 180.810 262.181,184.591 263.844,185.723 264.180 C 190.544 265.612,192.919 267.146,195.228 270.321 C 197.537 273.495,198.280 273.384,201.484 269.382 C 211.158 257.296,216.697 252.451,226.764 247.270 C 233.298 243.907,235.185 242.752,239.564 239.434 C 244.272 235.866,245.202 235.519,250.182 235.483 L 254.109 235.455 257.309 233.978 C 267.720 229.175,274.254 229.008,275.468 233.515 C 276.217 236.298,274.871 238.064,270.179 240.456 C 262.400 244.421,260.543 246.601,263.491 248.309 C 264.251 248.750,265.920 249.858,267.200 250.772 C 269.760 252.600,270.933 253.101,274.618 253.943 C 275.978 254.254,278.073 254.939,279.273 255.467 C 281.321 256.367,281.650 256.425,284.655 256.408 C 288.133 256.389,287.814 256.479,297.389 252.816 C 306.336 249.393,312.312 252.570,310.263 259.661 C 309.048 263.867,298.850 271.037,290.056 273.867 C 284.846 275.544,281.671 275.931,276.364 275.535 C 273.884 275.350,269.283 275.199,266.141 275.200 C 260.871 275.200,260.205 275.140,257.559 274.428 C 251.824 272.884,249.846 273.294,244.626 277.112 C 241.279 279.560,236.977 281.827,232.000 283.767 C 224.021 286.876,221.684 287.867,219.127 289.227 C 217.647 290.014,216.436 290.714,216.436 290.783 C 216.436 290.853,257.738 290.909,308.218 290.909 L 400.000 290.909 400.000 145.455 L 400.000 0.000 200.000 0.000 L 0.000 0.000 0.000 145.455 " stroke="none" fill="#6363fb" fill-rule="evenodd"></path><path id="path1" d="M267.345 230.561 C 264.119 231.254,260.641 232.437,257.309 233.976 L 254.109 235.455 250.182 235.483 C 245.202 235.519,244.272 235.866,239.564 239.434 C 235.185 242.752,233.298 243.907,226.764 247.270 C 216.697 252.451,211.158 257.296,201.484 269.382 C 198.280 273.384,197.537 273.495,195.228 270.321 C 192.919 267.146,190.544 265.612,185.723 264.180 C 184.591 263.844,180.810 262.181,177.320 260.484 L 170.974 257.399 168.292 254.700 C 164.481 250.864,163.941 250.694,153.018 249.904 C 149.935 249.681,147.704 249.321,144.727 248.569 C 139.340 247.207,137.622 247.130,121.891 247.545 C 107.773 247.917,105.342 248.111,103.587 249.006 C 99.735 250.972,99.261 256.379,102.644 259.762 C 104.831 261.949,106.869 262.755,114.068 264.280 C 116.950 264.890,117.645 265.376,116.738 266.147 C 116.079 266.707,114.744 267.095,107.296 268.894 C 93.758 272.163,92.512 280.012,104.301 287.750 C 106.087 288.923,107.136 289.438,110.196 290.645 C 110.586 290.800,132.693 290.909,163.465 290.909 L 216.066 290.909 218.651 289.480 C 221.098 288.128,223.953 286.906,232.000 283.768 C 236.981 281.825,241.281 279.558,244.626 277.112 C 249.846 273.294,251.824 272.884,257.559 274.428 C 260.205 275.140,260.871 275.200,266.141 275.200 C 269.283 275.199,273.884 275.350,276.364 275.535 C 281.671 275.931,284.846 275.544,290.056 273.867 C 298.850 271.037,309.048 263.867,310.263 259.661 C 312.312 252.570,306.336 249.393,297.389 252.816 C 287.814 256.479,288.133 256.389,284.655 256.408 C 281.650 256.425,281.321 256.367,279.273 255.467 C 278.073 254.939,275.978 254.254,274.618 253.943 C 270.933 253.101,269.760 252.600,267.200 250.772 C 265.920 249.858,264.251 248.750,263.491 248.309 C 260.543 246.601,262.400 244.421,270.179 240.456 C 274.871 238.064,276.217 236.298,275.468 233.515 C 274.676 230.574,271.933 229.577,267.345 230.561 " stroke="none" fill="#fafafb" fill-rule="evenodd"></path></g></svg>