<svg id="svg" version="1.1" width="400" height="290.90909090909093" viewBox="0 0 400 290.90909090909093" xmlns="http://www.w3.org/2000/svg" xmlns:xlink="http://www.w3.org/1999/xlink" ><g id="svgg"><path id="path0" d="M0.000 145.455 L 0.000 290.909 37.518 290.909 C 69.664 290.909,75.014 290.850,74.879 290.499 C 74.529 289.586,70.937 288.904,66.327 288.875 C 62.846 288.854,60.154 287.452,58.836 284.975 C 58.118 283.627,58.098 271.689,58.811 270.400 C 60.084 268.098,62.068 267.045,65.643 266.775 C 69.746 266.464,70.161 265.684,67.791 262.731 C 65.508 259.886,65.195 257.351,66.747 254.287 C 67.643 252.518,67.678 251.551,66.907 249.809 C 61.137 236.764,80.298 235.350,124.364 245.571 C 134.191 247.850,136.228 248.338,149.527 251.602 C 170.944 256.858,178.750 258.730,185.309 260.185 C 195.465 262.438,194.157 262.413,202.869 260.523 C 211.022 258.754,211.427 258.613,212.945 257.014 C 214.404 255.478,216.677 253.994,220.509 252.075 C 229.144 247.752,236.216 243.153,245.955 235.526 C 252.461 230.430,255.294 229.649,260.556 231.499 C 264.649 232.939,265.802 232.792,273.714 229.822 C 281.329 226.964,281.407 226.957,295.736 227.737 C 304.304 228.204,307.905 232.747,304.420 238.693 C 302.766 241.515,302.975 241.600,311.567 241.600 L 318.697 241.600 320.641 242.556 C 324.057 244.234,325.289 246.409,325.375 250.909 C 325.406 252.509,325.453 253.977,325.479 254.172 C 325.615 255.169,326.700 255.267,341.236 255.592 C 354.366 255.885,355.893 255.971,358.545 256.562 C 365.522 258.119,368.865 261.129,369.589 266.506 C 369.822 268.244,370.569 268.919,372.925 269.525 C 376.806 270.524,379.775 272.846,381.638 276.342 C 382.824 278.568,383.075 278.691,386.443 278.691 C 393.462 278.691,396.864 282.559,395.845 289.382 L 395.616 290.909 397.808 290.909 L 400.000 290.909 400.000 145.455 L 400.000 0.000 200.000 0.000 L 0.000 0.000 0.000 145.455 " stroke="none" fill="#6363fb" fill-rule="evenodd"></path><path id="path1" d="M280.291 227.664 C 279.171 227.914,276.211 228.885,273.714 229.822 C 265.802 232.792,264.649 232.939,260.556 231.499 C 255.294 229.649,252.461 230.430,245.955 235.526 C 236.216 243.153,229.144 247.752,220.509 252.075 C 216.677 253.994,214.404 255.478,212.945 257.014 C 211.427 258.613,211.022 258.754,202.869 260.523 C 194.157 262.413,195.465 262.438,185.309 260.185 C 178.750 258.730,170.944 256.858,149.527 251.602 C 111.319 242.226,100.625 240.114,86.400 239.133 C 75.102 238.354,70.323 239.073,67.809 241.929 C 65.892 244.107,65.582 246.813,66.907 249.809 C 67.678 251.551,67.643 252.518,66.747 254.287 C 65.195 257.351,65.508 259.886,67.791 262.731 C 70.161 265.684,69.746 266.464,65.643 266.775 C 62.068 267.045,60.084 268.098,58.811 270.400 C 58.098 271.689,58.118 283.627,58.836 284.975 C 60.135 287.416,62.858 288.857,66.189 288.866 C 70.797 288.879,74.276 289.541,74.851 290.515 C 75.046 290.846,100.878 290.909,235.342 290.909 L 395.601 290.909 395.832 289.527 C 396.975 282.704,393.498 278.691,386.443 278.691 C 383.075 278.691,382.824 278.568,381.638 276.342 C 379.775 272.846,376.806 270.524,372.925 269.525 C 370.569 268.919,369.822 268.244,369.589 266.506 C 368.865 261.129,365.522 258.119,358.545 256.562 C 355.893 255.971,354.366 255.885,341.236 255.592 C 326.700 255.267,325.615 255.169,325.479 254.172 C 325.453 253.977,325.406 252.509,325.375 250.909 C 325.289 246.409,324.057 244.234,320.641 242.556 L 318.697 241.600 311.567 241.600 C 302.975 241.600,302.766 241.515,304.420 238.693 C 306.664 234.864,305.397 230.528,301.481 228.632 C 299.288 227.571,283.871 226.867,280.291 227.664 " stroke="none" fill="#fbfbfb" fill-rule="evenodd"></path></g></svg>