<svg id="svg" version="1.1" width="400" height="290.90909090909093" viewBox="0 0 400 290.90909090909093" xmlns="http://www.w3.org/2000/svg" xmlns:xlink="http://www.w3.org/1999/xlink" ><g id="svgg"><path id="path0" d="M195.895 0.800 C 195.982 1.240,196.192 2.405,196.362 3.390 C 197.848 12.025,205.164 20.064,212.886 21.547 C 225.923 24.051,236.836 15.741,237.839 2.545 L 238.032 0.000 229.016 0.000 L 219.999 -0.000 219.865 1.619 C 219.477 6.295,213.421 5.626,212.452 0.800 L 212.291 -0.000 204.013 -0.000 L 195.736 0.000 195.895 0.800 M396.073 226.346 C 376.724 231.045,362.156 232.413,346.618 230.987 C 339.775 230.360,309.469 230.425,299.345 231.090 C 272.096 232.878,248.784 237.270,228.189 244.493 C 219.199 247.647,219.086 247.665,209.747 247.467 C 205.346 247.373,201.025 247.162,200.145 246.996 C 196.834 246.374,187.468 246.045,178.327 246.231 C 172.156 246.356,168.831 246.316,168.145 246.107 C 167.170 245.811,157.624 244.829,142.691 243.491 C 138.851 243.147,133.175 242.624,130.077 242.328 L 124.446 241.790 121.787 240.487 C 110.899 235.152,74.008 231.559,64.610 234.918 C 63.175 235.431,62.205 235.621,61.701 235.488 C 61.286 235.378,55.890 235.203,49.711 235.098 L 38.477 234.909 36.475 233.814 C 28.801 229.617,28.225 229.492,15.855 229.337 C 7.603 229.235,5.825 229.291,3.200 229.736 L 0.145 230.255 0.071 259.808 L -0.003 289.361 1.962 289.696 C 3.083 289.888,8.238 290.077,13.964 290.136 C 20.617 290.206,24.276 290.354,24.819 290.575 C 25.432 290.825,63.877 290.909,177.619 290.909 L 329.600 290.909 329.600 290.167 C 329.600 288.650,330.767 288.484,340.073 288.676 C 344.633 288.770,349.607 288.982,351.127 289.147 C 352.647 289.313,355.920 289.656,358.400 289.911 C 360.880 290.166,363.458 290.495,364.129 290.642 C 364.800 290.789,373.145 290.909,382.674 290.909 L 400.000 290.909 400.000 258.182 C 400.000 240.182,399.902 225.464,399.782 225.476 C 399.662 225.488,397.993 225.880,396.073 226.346 " stroke="none" fill="#fbfbfb" fill-rule="evenodd"></path><path id="path1" d="M-0.000 115.143 L -0.000 230.286 3.127 229.750 C 5.856 229.281,7.477 229.229,15.855 229.335 C 28.226 229.492,28.803 229.618,36.475 233.814 L 38.477 234.909 49.711 235.098 C 55.890 235.203,61.286 235.378,61.701 235.488 C 62.205 235.621,63.175 235.431,64.610 234.918 C 74.008 231.559,110.899 235.152,121.787 240.487 L 124.446 241.790 130.077 242.328 C 133.175 242.624,138.851 243.147,142.691 243.491 C 157.624 244.829,167.170 245.811,168.145 246.107 C 168.831 246.316,172.156 246.356,178.327 246.231 C 187.468 246.045,196.834 246.374,200.145 246.996 C 201.025 247.162,205.346 247.373,209.747 247.467 C 219.086 247.665,219.199 247.647,228.189 244.493 C 248.784 237.270,272.096 232.878,299.345 231.090 C 309.469 230.425,339.775 230.360,346.618 230.987 C 361.951 232.394,375.716 231.148,395.055 226.603 C 397.055 226.133,398.985 225.680,399.345 225.596 L 400.000 225.443 400.000 112.722 L 400.000 0.000 319.016 0.000 L 238.032 0.000 237.839 2.545 C 237.099 12.282,231.659 19.137,223.127 21.087 C 214.520 23.055,208.750 21.488,202.904 15.595 C 198.844 11.503,197.245 8.519,196.362 3.390 C 196.192 2.405,195.982 1.240,195.895 0.800 L 195.736 -0.000 97.868 -0.000 L 0.000 0.000 -0.000 115.143 M212.364 0.448 C 212.364 0.694,212.620 1.398,212.933 2.011 C 215.004 6.071,219.518 5.805,219.866 1.602 L 219.999 0.000 216.181 0.000 C 212.938 0.000,212.364 0.067,212.364 0.448 M330.545 288.993 C 329.840 289.317,329.600 289.614,329.600 290.168 L 329.600 290.909 347.273 290.879 C 356.993 290.862,364.487 290.743,363.927 290.614 C 363.367 290.485,360.880 290.170,358.400 289.913 C 355.920 289.657,352.647 289.312,351.127 289.147 C 346.097 288.599,331.639 288.491,330.545 288.993 M0.000 290.149 L 0.000 290.909 12.727 290.891 C 29.012 290.867,29.141 290.354,12.945 290.022 C 6.865 289.897,1.465 289.703,0.945 289.592 C 0.068 289.403,0.000 289.443,0.000 290.149 " stroke="none" fill="#6363fb" fill-rule="evenodd"></path></g></svg>