<svg id="svg" version="1.1" width="400" height="290.90909090909093" viewBox="0 0 400 290.90909090909093" xmlns="http://www.w3.org/2000/svg" xmlns:xlink="http://www.w3.org/1999/xlink" ><g id="svgg"><path id="path0" d="M197.087 1.382 C 196.877 2.946,195.653 10.093,195.031 13.382 C 193.399 22.021,194.506 37.973,197.225 45.012 C 202.921 59.755,216.816 64.706,228.398 56.120 C 240.974 46.797,243.995 22.572,232.582 22.572 C 228.363 22.572,226.230 25.247,225.295 31.709 C 224.545 36.892,223.681 38.969,221.721 40.301 C 215.157 44.761,211.832 29.338,215.258 10.327 C 215.841 7.094,216.727 1.097,216.727 0.386 C 216.727 0.073,214.885 0.000,207.000 0.000 L 197.272 0.000 197.087 1.382 M316.655 225.946 C 307.613 226.745,298.865 228.438,281.745 232.702 C 259.214 238.314,246.546 240.654,228.945 242.456 C 198.316 245.592,180.729 244.909,154.473 239.563 C 126.509 233.870,118.214 233.633,88.727 237.692 C 76.110 239.428,67.655 238.595,49.128 233.788 C 29.693 228.746,18.209 228.790,4.145 233.961 L 0.000 235.485 0.000 263.197 L 0.000 290.909 200.000 290.909 L 400.000 290.909 400.000 262.723 L 400.000 234.537 395.855 234.402 C 392.107 234.280,391.039 234.110,384.727 232.634 C 361.077 227.101,333.848 224.426,316.655 225.946 " stroke="none" fill="#fbfbfb" fill-rule="evenodd"></path><path id="path1" d="M0.000 117.673 C 0.000 182.393,0.104 235.345,0.230 235.345 C 0.357 235.345,1.989 234.766,3.857 234.057 C 17.694 228.807,29.656 228.736,49.128 233.788 C 67.655 238.595,76.110 239.428,88.727 237.692 C 118.214 233.633,126.509 233.870,154.473 239.563 C 180.729 244.909,198.316 245.592,228.945 242.456 C 246.546 240.654,259.214 238.314,281.745 232.702 C 306.043 226.651,310.421 226.000,328.000 225.825 C 347.053 225.635,362.981 227.547,384.727 232.634 C 391.039 234.110,392.107 234.280,395.855 234.402 L 400.000 234.537 400.000 117.269 L 400.000 0.000 308.405 -0.000 L 216.810 -0.000 216.458 2.691 C 216.264 4.171,215.781 7.250,215.384 9.533 C 212.314 27.194,214.169 41.018,219.608 41.018 C 222.620 41.018,224.360 38.169,225.295 31.709 C 226.230 25.247,228.363 22.572,232.582 22.572 C 243.995 22.572,240.974 46.797,228.398 56.120 C 216.816 64.706,202.921 59.755,197.225 45.012 C 194.506 37.973,193.399 22.021,195.031 13.382 C 195.653 10.093,196.877 2.946,197.087 1.382 L 197.272 -0.000 98.636 -0.000 L 0.000 0.000 0.000 117.673 " stroke="none" fill="#6363fb" fill-rule="evenodd"></path></g></svg>