<svg id="svg" version="1.1" width="400" height="290.90909090909093" viewBox="0 0 400 290.90909090909093" xmlns="http://www.w3.org/2000/svg" xmlns:xlink="http://www.w3.org/1999/xlink" ><g id="svgg"><path id="path0" d="M191.313 3.418 C 191.048 8.270,190.407 45.749,190.428 55.127 C 190.455 67.113,192.213 73.389,197.205 79.333 C 206.282 90.141,228.031 90.493,238.553 80.002 C 250.676 67.915,249.528 45.162,236.800 45.259 C 230.778 45.305,227.483 49.341,226.906 57.376 C 226.424 64.080,224.599 66.321,219.615 66.326 C 214.119 66.331,212.408 63.849,212.197 55.564 C 212.126 52.764,211.933 45.171,211.769 38.691 C 211.361 22.609,210.942 17.030,209.149 3.782 C 208.965 2.422,208.760 1.015,208.693 0.655 L 208.571 -0.000 200.035 -0.000 L 191.499 -0.000 191.313 3.418 M364.073 221.110 C 345.022 222.609,327.170 226.094,309.820 231.704 C 292.094 237.435,282.960 237.818,257.745 233.891 C 252.667 233.100,243.182 231.831,235.055 230.854 C 230.768 230.339,220.452 229.418,212.073 228.803 C 196.983 227.694,174.285 228.572,163.345 230.687 C 135.052 236.158,122.542 237.613,116.633 236.118 C 112.478 235.067,110.478 234.835,103.564 234.603 C 97.162 234.389,97.751 234.492,87.254 231.733 C 82.786 230.558,78.324 229.545,73.018 228.500 C 67.477 227.409,49.441 227.491,40.000 228.650 C 26.921 230.257,12.061 230.532,1.527 229.364 L -0.000 229.194 -0.000 260.052 L 0.000 290.909 200.000 290.909 L 400.000 290.909 400.000 256.319 L 400.000 221.730 398.327 221.551 C 391.386 220.806,371.230 220.547,364.073 221.110 " stroke="none" fill="#fbfbfb" fill-rule="evenodd"></path><path id="path1" d="M-0.000 114.597 L -0.000 229.194 1.527 229.364 C 12.061 230.532,26.921 230.257,40.000 228.650 C 49.441 227.491,67.477 227.409,73.018 228.500 C 78.324 229.545,82.786 230.558,87.254 231.733 C 97.751 234.492,97.162 234.389,103.564 234.603 C 110.478 234.835,112.478 235.067,116.633 236.118 C 122.542 237.613,135.052 236.158,163.345 230.687 C 171.286 229.152,182.502 228.367,196.509 228.365 C 210.487 228.364,224.302 229.437,245.527 232.172 C 249.287 232.657,254.785 233.430,257.745 233.891 C 282.960 237.818,292.094 237.435,309.820 231.704 C 338.296 222.497,371.563 218.681,398.327 221.551 L 400.000 221.730 400.000 110.865 L 400.000 0.000 304.319 0.000 L 208.637 0.000 208.775 1.236 C 208.851 1.916,209.158 4.109,209.458 6.109 C 210.795 15.030,211.377 23.241,211.769 38.691 C 211.933 45.171,212.126 52.764,212.197 55.564 C 212.408 63.849,214.119 66.331,219.615 66.326 C 224.599 66.321,226.424 64.080,226.906 57.376 C 227.483 49.341,230.778 45.305,236.800 45.259 C 249.528 45.162,250.676 67.915,238.553 80.002 C 228.031 90.493,206.282 90.141,197.205 79.333 C 192.213 73.389,190.455 67.113,190.428 55.127 C 190.407 45.749,191.048 8.270,191.313 3.418 L 191.499 -0.000 95.750 -0.000 L 0.000 0.000 -0.000 114.597 " stroke="none" fill="#6363fb" fill-rule="evenodd"></path></g></svg>