<svg id="svg" version="1.1" width="400" height="290.90909090909093" viewBox="0 0 400 290.90909090909093" xmlns="http://www.w3.org/2000/svg" xmlns:xlink="http://www.w3.org/1999/xlink" ><g id="svgg"><path id="path0" d="M191.656 1.673 C 191.211 7.449,191.598 78.524,192.090 81.448 C 194.129 93.574,197.851 105.573,201.038 110.294 C 213.533 128.804,242.281 124.158,252.122 102.039 C 259.665 85.086,254.727 67.282,242.530 67.454 C 235.116 67.559,232.049 72.225,231.416 84.364 C 231.003 92.297,228.319 96.876,224.084 96.872 C 221.281 96.869,220.276 95.291,215.474 83.345 C 212.839 76.794,212.948 77.812,212.516 55.709 C 212.158 37.414,212.097 36.084,211.521 34.036 C 211.124 32.626,210.750 29.848,210.463 26.182 C 209.908 19.087,208.649 6.246,208.281 3.927 C 208.129 2.967,208.003 1.691,208.002 1.091 L 208.000 0.000 199.892 -0.000 L 191.784 -0.000 191.656 1.673 M368.727 220.995 C 360.750 221.985,349.549 224.694,336.521 228.785 C 312.462 236.338,298.750 237.747,280.145 234.578 C 257.128 230.658,228.387 226.623,218.299 225.897 C 204.705 224.917,187.261 225.395,176.873 227.032 C 155.937 230.330,152.659 230.691,143.656 230.691 C 139.081 230.691,135.095 230.483,129.515 229.955 C 120.010 229.054,114.002 228.578,101.673 227.745 C 99.273 227.583,87.818 227.377,76.218 227.288 C 55.694 227.131,51.272 227.228,40.000 228.086 C 37.920 228.245,33.731 228.564,30.691 228.797 C 27.651 229.029,21.270 229.642,16.512 230.158 C 8.527 231.025,7.641 231.070,5.021 230.746 C 3.459 230.553,1.691 230.396,1.091 230.397 L 0.000 230.400 0.000 260.655 L 0.000 290.909 200.000 290.909 L 400.000 290.909 400.000 256.600 L 400.000 222.290 398.691 222.127 C 395.668 221.750,394.662 221.650,389.684 221.235 C 385.003 220.845,371.210 220.687,368.727 220.995 " stroke="none" fill="#fbfbfb" fill-rule="evenodd"></path><path id="path1" d="M0.000 115.200 L 0.000 230.400 1.091 230.397 C 1.691 230.396,3.459 230.553,5.021 230.746 C 7.641 231.070,8.527 231.025,16.512 230.158 C 21.270 229.642,27.651 229.029,30.691 228.797 C 33.731 228.564,37.920 228.245,40.000 228.086 C 51.272 227.228,55.694 227.131,76.218 227.288 C 87.818 227.377,99.273 227.583,101.673 227.745 C 114.002 228.578,120.010 229.054,129.515 229.955 C 135.095 230.483,139.081 230.691,143.656 230.691 C 152.659 230.691,155.937 230.330,176.873 227.032 C 187.261 225.395,204.705 224.917,218.299 225.897 C 228.387 226.623,257.128 230.658,280.145 234.578 C 298.751 237.747,312.485 236.336,336.521 228.783 C 347.149 225.443,355.931 223.182,364.364 221.614 C 371.059 220.368,387.010 220.608,398.764 222.130 L 400.000 222.290 400.000 111.145 L 400.000 0.000 304.000 0.000 L 208.000 0.000 208.002 1.091 C 208.003 1.691,208.129 2.967,208.281 3.927 C 208.649 6.246,209.908 19.087,210.463 26.182 C 210.750 29.848,211.124 32.626,211.521 34.036 C 212.097 36.084,212.158 37.414,212.516 55.709 C 212.948 77.812,212.839 76.794,215.474 83.345 C 220.276 95.291,221.281 96.869,224.084 96.872 C 228.319 96.876,231.003 92.297,231.416 84.364 C 231.905 74.985,233.050 71.786,236.823 69.267 C 245.242 63.645,254.903 70.811,255.609 83.200 C 257.083 109.101,234.568 128.173,212.542 119.680 C 202.626 115.856,197.233 106.857,193.206 87.411 C 191.482 79.089,191.576 81.933,191.612 39.200 L 191.645 -0.000 95.823 -0.000 L 0.000 0.000 0.000 115.200 " stroke="none" fill="#6363fb" fill-rule="evenodd"></path></g></svg>