<svg id="svg" version="1.1" width="400" height="290.90909090909093" viewBox="0 0 400 290.90909090909093" xmlns="http://www.w3.org/2000/svg" xmlns:xlink="http://www.w3.org/1999/xlink" ><g id="svgg"><path id="path0" d="M188.382 1.818 C 188.001 5.822,187.636 19.360,187.633 29.673 C 187.625 52.074,187.058 64.584,185.166 84.073 C 183.292 103.388,183.242 110.305,184.907 120.423 C 190.503 154.440,218.326 169.413,243.943 152.192 C 256.760 143.576,263.258 128.096,261.547 110.255 C 260.400 98.285,257.348 93.823,250.327 93.853 C 243.273 93.882,240.786 97.965,240.427 110.109 C 240.138 119.884,238.631 124.011,233.327 129.561 C 223.401 139.945,214.452 136.133,209.620 119.460 C 207.535 112.265,207.371 104.539,208.954 88.145 C 211.665 60.082,211.763 40.367,209.302 18.327 C 208.608 12.119,207.032 1.431,206.671 0.491 C 206.501 0.045,205.659 -0.000,197.519 -0.000 L 188.555 0.000 188.382 1.818 M387.782 222.162 C 379.633 222.533,361.902 224.178,360.145 224.725 C 359.905 224.800,357.484 225.248,354.764 225.720 C 352.044 226.192,346.480 227.173,342.400 227.900 C 327.548 230.545,322.867 230.982,309.395 230.981 C 299.506 230.980,293.499 230.711,286.400 229.950 C 284.160 229.711,279.775 229.252,276.655 228.931 C 273.535 228.611,268.666 228.091,265.835 227.776 C 219.299 222.598,199.188 223.400,174.836 231.404 C 162.968 235.305,160.063 235.803,150.613 235.555 C 143.103 235.358,139.904 234.878,125.964 231.858 C 122.774 231.167,118.514 230.404,112.727 229.487 C 107.755 228.699,93.813 228.533,87.418 229.186 C 79.656 229.979,74.210 230.673,70.255 231.376 C 68.015 231.774,65.200 232.252,64.000 232.438 C 62.800 232.625,60.116 233.084,58.036 233.459 C 50.622 234.793,41.818 235.946,33.658 236.652 C 29.628 237.000,6.018 237.945,0.945 237.961 L 0.000 237.964 0.000 264.436 L 0.000 290.909 200.000 290.909 L 400.000 290.909 400.000 256.436 L 400.000 221.964 394.836 222.020 C 391.996 222.051,388.822 222.115,387.782 222.162 " stroke="none" fill="#fbfbfb" fill-rule="evenodd"></path><path id="path1" d="M0.000 118.982 L 0.000 237.964 0.945 237.961 C 6.018 237.945,29.628 237.000,33.658 236.652 C 41.818 235.946,50.622 234.793,58.036 233.459 C 60.116 233.084,62.800 232.625,64.000 232.438 C 65.200 232.252,68.015 231.774,70.255 231.376 C 74.210 230.673,79.656 229.979,87.418 229.186 C 93.813 228.533,107.755 228.699,112.727 229.487 C 118.514 230.404,122.774 231.167,125.964 231.858 C 139.904 234.878,143.103 235.358,150.613 235.555 C 160.063 235.803,162.968 235.305,174.836 231.404 C 199.188 223.400,219.299 222.598,265.835 227.776 C 268.666 228.091,273.535 228.611,276.655 228.931 C 279.775 229.252,284.160 229.711,286.400 229.950 C 293.499 230.711,299.506 230.980,309.395 230.981 C 322.867 230.982,327.548 230.545,342.400 227.900 C 346.480 227.173,352.044 226.192,354.764 225.720 C 357.484 225.248,359.905 224.800,360.145 224.725 C 362.754 223.912,381.935 222.328,392.364 222.064 L 400.000 221.870 400.000 110.935 L 400.000 0.000 303.242 0.000 C 212.602 0.000,206.495 0.031,206.671 0.491 C 207.032 1.431,208.608 12.119,209.302 18.327 C 211.763 40.367,211.665 60.082,208.954 88.145 C 207.371 104.539,207.535 112.265,209.620 119.460 C 214.452 136.133,223.401 139.945,233.327 129.561 C 238.631 124.011,240.138 119.884,240.427 110.109 C 240.786 97.965,243.273 93.882,250.327 93.853 C 257.348 93.823,260.400 98.285,261.547 110.255 C 263.258 128.096,256.760 143.576,243.943 152.192 C 218.326 169.413,190.503 154.440,184.907 120.423 C 183.242 110.305,183.292 103.388,185.166 84.073 C 187.058 64.584,187.625 52.074,187.633 29.673 C 187.636 19.360,188.001 5.822,188.382 1.818 L 188.555 -0.000 94.278 -0.000 L 0.000 0.000 0.000 118.982 " stroke="none" fill="#6363fb" fill-rule="evenodd"></path></g></svg>