<svg id="svg" version="1.1" width="400" height="290.90909090909093" viewBox="0 0 400 290.90909090909093" xmlns="http://www.w3.org/2000/svg" xmlns:xlink="http://www.w3.org/1999/xlink" ><g id="svgg"><path id="path0" d="M187.553 16.364 C 187.466 25.364,187.240 37.375,187.050 43.055 C 186.860 48.735,186.772 57.833,186.854 63.273 C 186.995 72.514,187.241 76.484,188.364 87.641 C 190.636 110.219,190.745 119.855,189.040 147.491 C 187.733 168.663,189.179 185.513,192.944 193.018 C 201.777 210.622,221.411 213.396,241.891 199.933 C 256.466 190.351,262.075 176.299,260.925 152.241 C 260.184 136.725,253.509 128.056,243.593 129.728 C 235.738 131.053,233.663 137.655,237.096 150.400 C 239.554 159.530,239.263 167.028,236.214 173.114 C 229.967 185.581,215.578 190.566,211.060 181.829 C 209.429 178.674,209.064 167.252,209.893 145.309 C 210.713 123.590,210.480 117.272,207.741 87.127 C 206.708 75.760,206.348 71.352,205.807 63.418 C 205.725 62.218,205.531 53.840,205.374 44.800 C 205.053 26.167,204.669 16.003,204.082 10.573 C 203.860 8.518,203.509 5.298,203.303 3.418 L 202.928 0.000 195.319 0.000 L 187.709 0.000 187.553 16.364 M386.764 220.833 C 385.004 220.965,381.796 221.210,379.636 221.377 C 362.447 222.709,352.882 222.860,298.909 222.654 C 251.648 222.474,243.734 222.561,228.655 223.427 C 220.082 223.919,203.000 225.548,196.613 226.483 C 188.459 227.676,180.574 227.343,171.122 225.408 C 162.371 223.616,159.145 223.595,133.091 225.166 C 118.814 226.027,109.104 227.285,99.411 229.530 C 89.679 231.785,88.233 231.982,81.455 231.974 C 75.226 231.968,74.556 231.895,65.309 230.215 C 44.925 226.513,17.012 226.255,4.945 229.656 C 3.585 230.040,1.916 230.500,1.236 230.679 L 0.000 231.004 0.000 260.957 L 0.000 290.909 200.000 290.909 L 400.000 290.909 400.000 255.709 L 400.000 220.509 394.982 220.551 C 392.222 220.575,388.524 220.702,386.764 220.833 " stroke="none" fill="#fbfbfb" fill-rule="evenodd"></path><path id="path1" d="M0.000 115.511 C 0.000 225.382,0.025 231.014,0.509 230.877 C 9.486 228.330,10.581 228.170,23.046 227.585 C 39.040 226.834,50.680 227.559,65.309 230.215 C 74.556 231.895,75.226 231.968,81.455 231.974 C 88.233 231.982,89.679 231.785,99.411 229.530 C 109.104 227.285,118.814 226.027,133.091 225.166 C 159.145 223.595,162.371 223.616,171.122 225.408 C 180.574 227.343,188.459 227.676,196.613 226.483 C 203.007 225.547,220.096 223.918,228.655 223.428 C 243.030 222.605,252.019 222.506,304.727 222.597 C 359.394 222.691,364.391 222.625,375.709 221.648 C 382.139 221.093,387.589 220.779,393.818 220.605 L 400.000 220.432 400.000 110.216 L 400.000 0.000 301.527 0.000 L 203.055 0.000 203.055 0.884 C 203.055 1.370,203.312 3.890,203.628 6.484 C 204.511 13.752,204.747 17.969,205.085 32.436 C 205.913 67.911,205.863 66.905,207.859 88.582 C 210.453 116.769,210.705 123.809,209.893 145.309 C 209.285 161.407,209.402 176.079,210.163 179.142 C 213.573 192.864,233.627 185.134,237.854 168.468 C 239.302 162.762,239.094 157.822,237.096 150.400 C 233.663 137.655,235.738 131.053,243.593 129.728 C 253.509 128.056,260.184 136.725,260.925 152.241 C 262.075 176.299,256.466 190.351,241.891 199.933 C 221.411 213.396,201.777 210.622,192.944 193.018 C 189.179 185.513,187.733 168.663,189.040 147.491 C 190.745 119.855,190.636 110.219,188.364 87.641 C 187.241 76.484,186.995 72.514,186.854 63.273 C 186.772 57.833,186.860 48.735,187.050 43.055 C 187.240 37.375,187.466 25.364,187.553 16.364 L 187.709 0.000 93.855 0.000 L 0.000 0.000 0.000 115.511 " stroke="none" fill="#6363fb" fill-rule="evenodd"></path></g></svg>