<svg id="svg" version="1.1" width="400" height="290.90909090909093" viewBox="0 0 400 290.90909090909093" xmlns="http://www.w3.org/2000/svg" xmlns:xlink="http://www.w3.org/1999/xlink" ><g id="svgg"><path id="path0" d="M186.061 9.091 C 185.958 14.091,185.909 36.116,185.952 58.036 C 186.038 101.063,185.981 103.728,183.985 149.673 C 182.948 173.540,183.133 197.095,184.489 213.935 L 185.119 221.761 184.314 222.454 C 183.509 223.147,183.508 223.147,178.518 222.919 C 163.085 222.214,144.116 222.737,139.055 224.007 C 134.761 225.084,122.522 227.760,118.967 228.399 C 114.669 229.172,102.674 229.337,96.873 228.704 C 76.034 226.429,51.434 225.102,29.236 225.056 L 16.436 225.030 12.027 225.961 C 9.602 226.473,5.904 227.509,3.809 228.263 L 0.000 229.634 0.000 260.272 L 0.000 290.909 200.000 290.909 L 400.000 290.909 400.000 254.109 C 400.000 233.869,399.902 217.311,399.782 217.314 C 399.662 217.317,398.582 217.585,397.382 217.911 C 395.040 218.546,388.009 218.980,369.600 219.625 C 358.757 220.005,317.611 221.598,312.291 221.843 C 310.211 221.939,299.607 222.124,288.727 222.255 L 268.945 222.491 266.036 223.245 C 260.194 224.759,260.211 224.784,261.418 216.195 C 262.321 209.765,262.531 201.397,261.855 198.691 C 260.133 191.786,254.751 187.800,248.466 188.776 C 241.140 189.912,238.613 193.913,237.968 205.395 C 237.588 212.151,236.880 219.714,236.492 221.154 C 235.918 223.286,236.063 223.261,223.257 223.364 L 211.869 223.454 211.004 222.726 C 209.760 221.679,209.324 219.686,207.975 208.873 C 207.775 207.268,207.582 185.928,207.424 148.073 C 207.290 115.993,207.041 84.902,206.870 78.982 C 206.363 61.374,205.985 50.519,205.675 44.655 C 205.514 41.615,205.249 36.116,205.086 32.436 C 204.729 24.403,203.741 8.086,203.343 3.636 C 203.185 1.876,203.056 0.338,203.056 0.218 C 203.055 0.098,199.273 0.000,194.652 0.000 L 186.249 0.000 186.061 9.091 " stroke="none" fill="#fbfbfb" fill-rule="evenodd"></path><path id="path1" d="M0.000 114.764 C 0.000 177.884,0.075 229.527,0.166 229.527 C 0.257 229.527,1.962 228.936,3.955 228.214 C 5.948 227.491,9.572 226.479,12.008 225.965 L 16.436 225.030 29.236 225.056 C 51.434 225.102,76.034 226.429,96.873 228.704 C 102.674 229.337,114.669 229.172,118.967 228.399 C 122.522 227.760,134.761 225.084,139.055 224.007 C 144.116 222.737,163.085 222.214,178.518 222.919 C 183.508 223.147,183.509 223.147,184.314 222.454 L 185.119 221.761 184.489 213.935 C 183.139 197.170,182.949 173.308,183.978 149.818 C 185.935 105.176,185.997 102.103,186.017 49.236 L 186.036 0.000 93.018 0.000 L 0.000 0.000 0.000 114.764 M203.056 0.218 C 203.056 0.338,203.185 1.876,203.343 3.636 C 203.741 8.086,204.729 24.403,205.086 32.436 C 205.249 36.116,205.514 41.615,205.675 44.655 C 205.985 50.519,206.363 61.374,206.870 78.982 C 207.041 84.902,207.290 115.993,207.424 148.073 C 207.582 185.928,207.775 207.268,207.975 208.873 C 209.324 219.686,209.760 221.679,211.004 222.726 L 211.869 223.454 223.257 223.364 C 236.063 223.261,235.918 223.286,236.492 221.154 C 236.880 219.714,237.588 212.151,237.968 205.395 C 238.613 193.913,241.140 189.912,248.466 188.776 C 254.751 187.800,260.133 191.786,261.855 198.691 C 262.531 201.397,262.321 209.765,261.418 216.195 C 260.211 224.785,260.194 224.759,266.036 223.245 L 268.945 222.491 288.727 222.255 C 299.607 222.124,310.211 221.939,312.291 221.843 C 317.611 221.598,358.757 220.005,369.600 219.625 C 388.234 218.972,395.016 218.547,397.600 217.868 L 400.000 217.237 400.000 108.619 L 400.000 0.000 301.527 0.000 C 247.367 0.000,203.055 0.098,203.056 0.218 " stroke="none" fill="#6363fb" fill-rule="evenodd"></path></g></svg>