<svg id="svg" version="1.1" width="400" height="290.90909090909093" viewBox="0 0 400 290.90909090909093" xmlns="http://www.w3.org/2000/svg" xmlns:xlink="http://www.w3.org/1999/xlink" ><g id="svgg"><path id="path0" d="M0.000 145.455 L 0.000 290.909 200.000 290.909 L 400.000 290.909 400.000 145.455 L 400.000 0.000 298.764 0.000 C 243.084 0.000,197.527 0.076,197.527 0.169 C 197.527 0.262,198.001 0.917,198.580 1.624 C 199.877 3.206,200.706 3.283,202.494 1.987 C 207.460 -1.610,212.377 3.331,209.475 9.003 C 207.636 12.598,207.628 12.643,207.403 20.945 C 206.922 38.754,205.248 45.502,200.748 47.782 C 196.454 49.957,194.356 48.306,189.934 39.273 C 188.088 35.502,187.373 27.867,188.470 23.644 C 189.338 20.300,189.301 20.038,187.430 16.337 C 184.563 10.666,185.322 6.653,190.233 1.527 L 191.696 0.000 95.848 0.000 L 0.000 0.000 0.000 145.455 " stroke="none" fill="#6363fb" fill-rule="evenodd"></path><path id="path1" d="M190.233 1.527 C 185.322 6.653,184.563 10.666,187.430 16.337 C 189.301 20.038,189.338 20.300,188.470 23.644 C 187.373 27.867,188.088 35.502,189.934 39.273 C 194.356 48.306,196.454 49.957,200.748 47.782 C 205.248 45.502,206.922 38.754,207.403 20.945 C 207.628 12.643,207.636 12.598,209.475 9.003 C 212.377 3.331,207.460 -1.610,202.494 1.987 C 200.645 3.327,199.849 3.223,198.494 1.467 L 197.382 0.025 194.539 0.012 L 191.696 0.000 190.233 1.527 " stroke="none" fill="#f8f8f8" fill-rule="evenodd"></path></g></svg>