<svg id="svg" version="1.1" width="400" height="290.90909090909093" viewBox="0 0 400 290.90909090909093" xmlns="http://www.w3.org/2000/svg" xmlns:xlink="http://www.w3.org/1999/xlink" ><g id="svgg"><path id="path0" d="M170.304 1.382 C 171.961 14.334,172.686 50.524,171.649 68.509 C 171.353 73.646,171.224 82.573,171.208 98.909 L 171.187 122.036 170.406 128.601 C 169.976 132.212,169.358 137.252,169.032 139.801 C 165.301 168.948,166.868 183.489,175.409 198.982 C 176.611 201.164,176.570 202.009,175.227 202.716 C 174.567 203.063,153.277 206.548,143.855 207.851 C 140.815 208.271,134.269 209.187,129.309 209.886 C 120.699 211.099,118.202 211.412,103.855 213.079 C 96.050 213.985,79.181 215.759,76.073 216.000 C 74.793 216.099,72.502 216.303,70.982 216.454 C 69.462 216.604,65.665 216.921,62.545 217.158 C 38.640 218.973,27.407 220.435,7.658 224.305 C 4.429 224.937,1.386 225.455,0.894 225.455 L 0.000 225.455 0.000 258.182 L 0.000 290.909 200.000 290.909 L 400.000 290.909 400.000 261.678 L 400.000 232.447 399.345 232.314 C 398.985 232.241,395.942 231.839,392.582 231.422 C 389.222 231.004,384.705 230.411,382.545 230.104 C 380.385 229.797,375.476 229.142,371.636 228.648 C 362.730 227.504,353.500 226.281,344.291 225.026 C 340.291 224.481,334.924 223.757,332.364 223.417 C 322.532 222.111,314.277 220.249,303.855 216.986 C 278.966 209.193,272.154 207.267,259.345 204.402 C 252.133 202.789,250.206 202.410,243.676 201.324 C 236.304 200.098,236.194 199.968,238.272 194.980 C 242.372 185.137,244.071 162.216,241.426 152.440 C 238.291 140.853,225.934 135.731,219.169 143.215 C 215.770 146.975,215.434 149.757,217.417 157.715 C 220.347 169.481,219.731 179.037,215.499 187.465 C 209.686 199.041,195.957 193.437,192.043 177.891 C 190.156 170.398,190.179 162.800,192.146 144.873 C 194.189 126.243,194.520 120.631,194.909 98.036 C 195.229 79.395,195.340 23.614,195.067 18.306 C 194.973 16.478,194.764 12.429,194.603 9.309 C 194.443 6.189,194.239 2.818,194.150 1.818 L 193.990 0.000 182.059 0.000 L 170.127 -0.000 170.304 1.382 " stroke="none" fill="#fbfbfb" fill-rule="evenodd"></path><path id="path1" d="M0.000 112.727 L 0.000 225.455 0.894 225.455 C 1.386 225.455,4.429 224.937,7.658 224.305 C 27.407 220.435,38.640 218.973,62.545 217.158 C 65.665 216.921,69.462 216.604,70.982 216.454 C 72.502 216.303,74.793 216.099,76.073 216.000 C 79.181 215.759,96.050 213.985,103.855 213.079 C 118.202 211.412,120.699 211.099,129.309 209.886 C 134.269 209.187,140.815 208.271,143.855 207.851 C 153.277 206.548,174.567 203.063,175.227 202.716 C 176.570 202.009,176.611 201.164,175.409 198.982 C 166.868 183.489,165.301 168.948,169.032 139.801 C 169.358 137.252,169.976 132.212,170.406 128.601 L 171.187 122.036 171.208 98.909 C 171.224 82.573,171.353 73.646,171.649 68.509 C 172.686 50.524,171.961 14.334,170.304 1.382 L 170.127 0.000 85.064 0.000 L 0.000 0.000 0.000 112.727 M194.163 2.109 C 195.061 14.617,195.213 21.764,195.207 51.200 C 195.196 107.537,194.752 121.108,192.146 144.873 C 189.216 171.582,190.830 182.861,198.595 189.958 C 212.048 202.254,223.587 182.487,217.417 157.715 C 215.434 149.757,215.770 146.975,219.169 143.215 C 225.934 135.731,238.291 140.853,241.426 152.440 C 242.980 158.182,243.036 168.813,241.582 181.666 C 241.056 186.309,239.832 191.234,238.272 194.980 C 236.194 199.968,236.304 200.098,243.676 201.324 C 250.206 202.410,252.133 202.789,259.345 204.402 C 272.154 207.267,278.966 209.193,303.855 216.986 C 314.277 220.249,322.532 222.111,332.364 223.417 C 334.924 223.757,340.291 224.481,344.291 225.026 C 353.500 226.281,362.730 227.504,371.636 228.648 C 375.476 229.142,380.385 229.796,382.545 230.103 C 384.705 230.410,389.156 230.997,392.436 231.408 C 395.716 231.819,398.760 232.216,399.200 232.289 L 400.000 232.422 400.000 116.211 L 400.000 0.000 297.006 -0.000 L 194.012 -0.000 194.163 2.109 " stroke="none" fill="#6363fb" fill-rule="evenodd"></path></g></svg>