<svg id="svg" version="1.1" width="400" height="290.90909090909093" viewBox="0 0 400 290.90909090909093" xmlns="http://www.w3.org/2000/svg" xmlns:xlink="http://www.w3.org/1999/xlink" ><g id="svgg"><path id="path0" d="M174.255 0.958 C 174.255 1.485,174.515 4.439,174.832 7.523 C 176.089 19.719,177.014 42.659,176.771 55.564 C 176.496 70.153,175.809 83.326,173.238 123.345 C 172.278 138.287,172.096 142.889,172.085 152.582 C 172.072 163.042,172.216 165.028,173.397 170.737 C 174.411 175.638,174.507 175.501,167.448 179.184 C 146.694 190.009,129.212 196.225,96.657 204.352 C 74.586 209.861,55.258 212.326,22.445 213.816 C 17.822 214.026,15.300 214.273,13.717 214.672 C 12.493 214.980,10.278 215.438,8.796 215.689 C 7.314 215.941,4.761 216.578,3.123 217.106 L 0.145 218.065 0.072 254.487 L -0.002 290.909 199.999 290.909 L 400.000 290.909 400.000 250.688 L 400.000 210.466 394.109 209.520 C 380.562 207.343,366.334 203.805,326.545 192.720 C 322.705 191.650,317.927 190.324,315.927 189.773 C 310.266 188.213,298.470 184.238,294.729 182.629 C 290.328 180.737,275.259 174.489,271.709 173.086 C 264.431 170.209,255.244 167.244,250.999 166.403 C 247.739 165.757,247.497 165.174,248.275 159.833 C 249.663 150.310,249.601 139.019,248.132 133.586 C 244.813 121.317,233.177 116.855,225.520 124.917 C 221.608 129.034,221.261 132.425,223.923 140.509 C 226.455 148.200,226.535 154.555,224.129 156.815 C 223.303 157.592,222.966 157.539,219.200 156.043 C 217.364 155.314,216.802 155.232,213.494 155.217 L 209.825 155.200 207.094 156.622 C 205.592 157.405,202.840 159.008,200.978 160.186 C 195.114 163.895,194.335 163.121,194.919 154.167 C 195.197 149.898,196.286 132.061,197.075 118.836 C 200.608 59.637,200.832 29.236,197.937 1.673 L 197.761 0.000 186.008 0.000 L 174.255 0.000 174.255 0.958 " stroke="none" fill="#fbfbfb" fill-rule="evenodd"></path><path id="path1" d="M0.000 109.060 L 0.000 218.121 3.037 217.136 C 4.707 216.595,7.292 215.945,8.782 215.692 C 10.272 215.439,12.493 214.980,13.717 214.672 C 15.300 214.273,17.822 214.026,22.445 213.816 C 55.258 212.326,74.586 209.861,96.657 204.352 C 129.212 196.225,146.694 190.009,167.448 179.184 C 174.507 175.501,174.411 175.638,173.397 170.737 C 172.216 165.028,172.072 163.042,172.085 152.582 C 172.096 142.889,172.278 138.287,173.238 123.345 C 175.795 83.538,176.490 70.243,176.772 55.709 C 177.026 42.600,176.150 21.120,174.784 6.942 L 174.116 0.000 87.058 0.000 L 0.000 0.000 0.000 109.060 M197.937 1.673 C 200.832 29.236,200.608 59.637,197.075 118.836 C 196.286 132.061,195.197 149.898,194.919 154.167 C 194.335 163.121,195.114 163.895,200.978 160.186 C 202.840 159.008,205.592 157.405,207.094 156.622 L 209.825 155.200 213.494 155.217 C 216.802 155.232,217.364 155.314,219.200 156.043 C 222.966 157.539,223.303 157.592,224.129 156.815 C 226.535 154.555,226.455 148.200,223.923 140.509 C 221.261 132.425,221.608 129.034,225.520 124.917 C 233.177 116.855,244.813 121.317,248.132 133.586 C 249.601 139.019,249.663 150.310,248.275 159.833 C 247.497 165.174,247.739 165.757,250.999 166.403 C 255.244 167.244,264.431 170.209,271.709 173.086 C 275.259 174.489,290.328 180.737,294.729 182.629 C 298.470 184.238,310.266 188.213,315.927 189.773 C 317.927 190.324,322.705 191.650,326.545 192.720 C 355.194 200.701,372.614 205.276,381.527 207.159 C 386.929 208.301,398.406 210.327,399.467 210.327 C 399.983 210.327,400.000 206.957,400.000 105.164 L 400.000 0.000 298.881 -0.000 L 197.761 -0.000 197.937 1.673 " stroke="none" fill="#6363fb" fill-rule="evenodd"></path></g></svg>