<svg id="svg" version="1.1" width="400" height="290.90909090909093" viewBox="0 0 400 290.90909090909093" xmlns="http://www.w3.org/2000/svg" xmlns:xlink="http://www.w3.org/1999/xlink" ><g id="svgg"><path id="path0" d="M0.000 90.182 C 0.000 140.606,0.111 180.364,0.251 180.364 C 0.389 180.364,1.143 180.242,1.927 180.094 C 2.710 179.945,6.099 179.547,9.457 179.209 C 60.254 174.094,114.477 160.140,140.945 145.371 C 163.737 132.654,189.091 114.197,189.091 110.323 C 189.091 109.454,188.768 108.976,186.807 106.946 C 177.829 97.650,174.982 86.785,174.982 61.818 C 174.982 48.715,175.241 45.121,177.183 31.321 C 179.212 16.899,180.361 6.190,180.363 1.673 L 180.364 0.000 90.182 0.000 L 0.000 0.000 0.000 90.182 M203.375 5.455 C 202.910 12.590,200.902 31.792,200.294 34.909 C 199.440 39.292,198.116 56.864,198.112 63.869 C 198.102 80.737,200.666 89.497,206.255 91.689 C 208.107 92.415,215.621 92.110,217.410 91.235 C 223.652 88.180,226.177 81.250,224.914 70.632 C 223.707 60.482,225.893 56.057,233.018 54.232 C 249.807 49.931,255.382 79.038,241.747 99.804 C 238.780 104.322,238.743 104.235,245.516 108.781 C 279.143 131.352,309.928 145.929,357.127 161.629 C 375.525 167.749,385.973 171.609,394.127 175.301 C 396.417 176.337,398.675 177.262,399.145 177.356 L 400.000 177.527 400.000 88.764 L 400.000 0.000 301.865 0.000 L 203.731 0.000 203.375 5.455 " stroke="none" fill="#6464fb" fill-rule="evenodd"></path><path id="path1" d="M180.137 5.600 C 179.757 11.705,178.964 18.620,177.174 31.418 C 175.211 45.455,174.994 48.456,174.988 61.673 C 174.975 86.779,177.807 97.628,186.807 106.946 C 190.291 110.553,190.135 111.034,183.627 116.731 C 173.887 125.256,149.231 141.365,135.001 148.500 C 109.047 161.513,55.817 174.542,9.600 179.193 C 6.320 179.523,2.818 179.935,1.818 180.108 L -0.000 180.423 -0.000 235.666 L 0.000 290.909 200.000 290.909 L 400.000 290.909 400.000 234.218 L 400.000 177.527 399.145 177.356 C 398.675 177.262,396.417 176.337,394.127 175.301 C 385.973 171.609,375.525 167.749,357.127 161.629 C 309.928 145.929,279.143 131.352,245.516 108.781 C 238.743 104.235,238.780 104.322,241.747 99.804 C 248.355 89.740,251.035 76.458,248.591 65.891 C 245.988 54.637,234.662 50.119,227.363 57.422 C 224.539 60.248,224.015 63.074,224.914 70.632 C 226.177 81.250,223.652 88.180,217.410 91.235 C 215.621 92.110,208.107 92.415,206.255 91.689 C 200.666 89.497,198.102 80.737,198.112 63.869 C 198.116 56.864,199.440 39.292,200.294 34.909 C 200.474 33.985,201.744 23.278,202.330 17.745 C 202.832 13.000,203.636 2.753,203.636 1.091 L 203.636 0.000 192.061 0.000 L 180.486 0.000 180.137 5.600 " stroke="none" fill="#fbfbfb" fill-rule="evenodd"></path></g></svg>