<svg id="svg" version="1.1" width="400" height="290.90909090909093" viewBox="0 0 400 290.90909090909093" xmlns="http://www.w3.org/2000/svg" xmlns:xlink="http://www.w3.org/1999/xlink" ><g id="svgg"><path id="path0" d="M0.000 67.927 C 0.000 135.302,0.005 135.855,0.573 135.855 C 0.888 135.855,3.670 135.460,6.755 134.977 C 9.840 134.494,17.207 133.379,23.127 132.498 C 50.694 128.397,74.731 124.531,82.909 122.884 C 97.027 120.040,103.660 118.467,118.545 114.434 C 138.028 109.155,156.347 102.776,165.772 97.989 C 174.470 93.572,180.559 88.453,187.247 79.937 C 192.078 73.786,192.147 73.209,188.455 69.846 C 180.106 62.241,177.418 50.476,180.139 33.455 C 181.852 22.740,182.343 17.552,182.594 7.491 L 182.781 0.000 91.391 0.000 L 0.000 0.000 0.000 67.927 M205.731 9.818 C 205.393 19.247,204.684 28.558,203.788 35.345 C 203.556 37.105,203.165 40.043,202.919 41.872 C 201.739 50.667,203.754 54.238,208.001 50.881 C 210.452 48.943,211.716 48.525,215.761 48.310 C 221.117 48.026,221.875 46.956,224.884 35.421 C 226.645 28.667,227.963 25.700,230.281 23.269 C 235.801 17.483,245.309 19.103,248.653 26.399 C 252.234 34.213,244.687 56.276,234.884 66.654 C 232.115 69.584,232.189 69.770,238.400 75.509 C 252.759 88.777,264.495 97.373,278.982 105.229 C 286.086 109.082,297.242 113.957,322.618 124.299 C 325.578 125.505,333.302 128.652,339.782 131.291 C 346.262 133.931,354.902 137.465,358.982 139.146 C 384.242 149.549,397.748 154.968,399.075 155.233 L 400.000 155.418 400.000 77.709 L 400.000 0.000 303.042 0.000 L 206.084 0.000 205.731 9.818 " stroke="none" fill="#6464fa" fill-rule="evenodd"></path><path id="path1" d="M182.594 7.491 C 182.343 17.552,181.852 22.740,180.139 33.455 C 177.418 50.476,180.106 62.241,188.455 69.846 C 192.147 73.209,192.078 73.786,187.247 79.937 C 175.568 94.810,164.661 100.693,128.436 111.661 C 119.655 114.320,102.087 118.849,93.382 120.699 C 82.706 122.967,79.830 123.522,71.418 124.940 C 59.089 127.018,43.891 129.398,22.109 132.661 C 15.629 133.631,8.004 134.777,5.164 135.206 L 0.000 135.987 0.000 213.448 L 0.000 290.909 200.000 290.909 L 400.000 290.909 400.000 223.164 L 400.000 155.418 399.075 155.233 C 397.748 154.968,384.242 149.549,358.982 139.146 C 354.902 137.465,346.262 133.931,339.782 131.291 C 333.302 128.652,325.578 125.505,322.618 124.299 C 297.242 113.957,286.086 109.082,278.982 105.229 C 264.495 97.373,252.759 88.777,238.400 75.509 C 232.189 69.770,232.115 69.584,234.884 66.654 C 244.687 56.276,252.234 34.213,248.653 26.399 C 245.309 19.103,235.801 17.483,230.281 23.269 C 227.963 25.700,226.645 28.667,224.884 35.421 C 221.875 46.956,221.117 48.026,215.761 48.310 C 211.716 48.525,210.452 48.943,208.001 50.881 C 203.754 54.238,201.740 50.668,202.919 41.872 C 203.164 40.043,203.548 37.171,203.773 35.491 C 204.858 27.375,205.960 10.865,205.963 2.691 L 205.964 0.000 194.373 -0.000 L 182.781 -0.000 182.594 7.491 " stroke="none" fill="#fbfbfb" fill-rule="evenodd"></path></g></svg>