<svg id="svg" version="1.1" width="400" height="290.90909090909093" viewBox="0 0 400 290.90909090909093" xmlns="http://www.w3.org/2000/svg" xmlns:xlink="http://www.w3.org/1999/xlink" ><g id="svgg"><path id="path0" d="M0.015 63.636 L 0.029 127.273 1.144 125.091 C 1.757 123.891,3.008 121.011,3.924 118.691 C 9.193 105.343,14.535 98.738,25.487 92.033 C 35.235 86.065,46.636 81.917,62.545 78.552 C 70.215 76.929,87.404 74.741,99.200 73.885 C 143.507 70.669,171.092 61.678,186.980 45.274 C 192.956 39.105,193.737 37.378,192.308 33.502 C 190.846 29.535,190.552 27.363,190.259 18.376 C 189.966 9.408,189.609 5.072,188.906 1.964 L 188.462 -0.000 94.231 -0.000 L 0.000 0.000 0.015 63.636 M212.764 1.236 C 212.860 1.916,213.076 4.222,213.243 6.361 C 213.608 11.027,213.888 11.692,215.776 12.381 C 220.091 13.955,221.340 14.786,225.600 18.921 C 227.360 20.629,229.110 22.125,229.490 22.244 C 232.216 23.103,235.862 13.632,237.521 1.382 L 237.708 0.000 225.148 0.000 L 212.588 0.000 212.764 1.236 M260.839 4.000 C 259.445 15.017,257.176 23.166,253.213 31.384 C 250.200 37.631,250.149 37.398,255.192 40.600 C 284.258 59.061,313.464 67.373,352.727 68.359 C 377.119 68.971,385.891 71.063,396.834 78.875 C 398.373 79.974,399.715 80.873,399.816 80.873 C 399.917 80.873,400.000 62.676,400.000 40.436 L 400.000 0.000 330.672 0.000 L 261.344 0.000 260.839 4.000 " stroke="none" fill="#6463fa" fill-rule="evenodd"></path><path id="path1" d="M188.509 0.127 C 188.509 0.197,188.699 1.081,188.931 2.091 C 189.607 5.034,189.968 9.461,190.259 18.376 C 190.552 27.363,190.846 29.535,192.308 33.502 C 193.737 37.378,192.956 39.105,186.980 45.274 C 171.092 61.678,143.507 70.669,99.200 73.885 C 87.404 74.741,70.215 76.929,62.545 78.552 C 46.636 81.917,35.235 86.065,25.487 92.033 C 14.535 98.738,9.193 105.342,3.923 118.691 C 3.008 121.011,1.750 123.921,1.129 125.157 L -0.000 127.405 -0.000 209.157 L 0.000 290.909 200.000 290.909 L 400.000 290.909 399.984 185.964 L 399.969 81.018 396.961 78.925 C 385.523 70.964,377.186 68.973,352.727 68.359 C 313.464 67.373,284.258 59.061,255.192 40.600 C 250.172 37.412,250.209 37.569,253.081 31.688 C 257.221 23.210,261.236 7.897,261.236 0.584 C 261.236 0.009,261.058 -0.000,249.472 -0.000 L 237.708 -0.000 237.521 1.382 C 235.862 13.632,232.216 23.103,229.490 22.244 C 229.110 22.125,227.360 20.629,225.600 18.921 C 221.340 14.786,220.091 13.955,215.776 12.381 C 213.888 11.692,213.608 11.027,213.243 6.361 C 213.076 4.222,212.860 1.916,212.764 1.236 L 212.588 0.000 200.549 0.000 C 193.927 0.000,188.509 0.057,188.509 0.127 " stroke="none" fill="#fbfbfb" fill-rule="evenodd"></path></g></svg>