<svg id="svg" version="1.1" width="400" height="290.90909090909093" viewBox="0 0 400 290.90909090909093" xmlns="http://www.w3.org/2000/svg" xmlns:xlink="http://www.w3.org/1999/xlink" ><g id="svgg"><path id="path0" d="M0.000 145.455 L 0.000 290.909 200.000 290.909 L 400.000 290.909 400.000 145.455 L 400.000 0.000 200.000 0.000 L 0.000 0.000 0.000 145.455 M204.443 23.422 C 205.647 24.138,206.757 25.730,207.293 27.509 C 207.985 29.810,207.858 39.593,207.092 42.909 C 206.674 44.719,206.418 47.189,206.263 50.909 C 206.082 55.270,205.924 56.601,205.430 57.926 C 204.999 59.083,204.829 60.193,204.847 61.725 C 204.904 66.660,201.540 68.754,196.800 66.733 C 195.840 66.324,193.923 65.536,192.541 64.982 C 186.907 62.725,185.018 59.041,185.018 50.310 C 185.018 45.731,185.234 44.666,186.600 42.501 C 187.064 41.766,187.571 40.245,187.906 38.581 C 188.206 37.086,188.685 35.419,188.970 34.877 C 189.355 34.143,189.535 32.887,189.673 29.964 C 189.992 23.206,190.704 22.639,198.691 22.775 C 202.832 22.845,203.622 22.934,204.443 23.422 " stroke="none" fill="#6363fb" fill-rule="evenodd"></path><path id="path1" d="M192.797 23.095 C 190.339 23.998,189.910 24.943,189.673 29.964 C 189.535 32.887,189.355 34.143,188.970 34.877 C 188.685 35.419,188.206 37.086,187.906 38.581 C 187.571 40.245,187.064 41.766,186.600 42.501 C 185.234 44.666,185.018 45.731,185.018 50.310 C 185.018 59.041,186.907 62.725,192.541 64.982 C 193.923 65.536,195.840 66.324,196.800 66.733 C 201.540 68.754,204.904 66.660,204.847 61.725 C 204.829 60.193,204.999 59.083,205.430 57.926 C 205.924 56.601,206.082 55.270,206.263 50.909 C 206.418 47.189,206.674 44.719,207.092 42.909 C 207.858 39.593,207.985 29.810,207.293 27.509 C 206.757 25.730,205.647 24.138,204.443 23.422 C 203.191 22.678,194.588 22.437,192.797 23.095 " stroke="none" fill="#f9f9f9" fill-rule="evenodd"></path></g></svg>