<svg id="svg" version="1.1" width="400" height="290.90909090909093" viewBox="0 0 400 290.90909090909093" xmlns="http://www.w3.org/2000/svg" xmlns:xlink="http://www.w3.org/1999/xlink" ><g id="svgg"><path id="path0" d="M0.000 145.455 L 0.000 290.909 200.000 290.909 L 400.000 290.909 400.000 145.455 L 400.000 0.000 200.000 0.000 L 0.000 0.000 0.000 145.455 M200.167 47.306 C 207.107 48.494,207.587 49.091,208.448 57.600 C 209.004 63.101,208.929 64.236,207.815 67.222 C 207.019 69.352,207.008 69.476,206.995 76.218 C 206.975 86.561,205.099 89.770,198.343 91.015 C 188.928 92.749,184.591 82.772,189.761 71.273 L 191.265 67.927 191.152 64.727 C 190.641 50.243,191.142 48.153,195.364 47.163 C 196.993 46.781,197.127 46.785,200.167 47.306 " stroke="none" fill="#6464fb" fill-rule="evenodd"></path><path id="path1" d="M195.364 47.163 C 191.142 48.153,190.641 50.243,191.152 64.727 L 191.265 67.927 189.761 71.273 C 184.591 82.772,188.928 92.749,198.343 91.015 C 205.099 89.770,206.975 86.561,206.995 76.218 C 207.008 69.476,207.019 69.352,207.815 67.222 C 208.929 64.236,209.004 63.101,208.448 57.600 C 207.587 49.091,207.107 48.494,200.167 47.306 C 197.127 46.785,196.993 46.781,195.364 47.163 " stroke="none" fill="#f9f9f8" fill-rule="evenodd"></path></g></svg>