<svg id="svg" version="1.1" width="400" height="290.90909090909093" viewBox="0 0 400 290.90909090909093" xmlns="http://www.w3.org/2000/svg" xmlns:xlink="http://www.w3.org/1999/xlink" ><g id="svgg"><path id="path0" d="M194.629 71.636 C 192.828 72.560,192.205 73.816,192.428 76.073 C 193.001 81.869,193.037 81.432,191.764 83.947 C 191.121 85.216,189.673 87.464,188.547 88.942 C 182.389 97.021,185.665 107.059,194.457 107.053 C 201.839 107.048,205.823 101.677,206.539 90.764 C 206.691 88.444,207.023 85.825,207.277 84.945 C 209.006 78.952,207.729 73.648,204.349 72.782 C 203.717 72.620,201.950 72.149,200.422 71.735 C 197.023 70.814,196.258 70.801,194.629 71.636 " stroke="none" fill="#f8f9f8" fill-rule="evenodd"></path><path id="path1" d="M0.000 145.455 L 0.000 290.909 200.000 290.909 L 400.000 290.909 400.000 145.455 L 400.000 0.000 200.000 0.000 L 0.000 0.000 0.000 145.455 M200.422 71.735 C 201.950 72.149,203.717 72.620,204.349 72.782 C 207.729 73.648,209.006 78.952,207.277 84.945 C 207.023 85.825,206.691 88.444,206.539 90.764 C 205.823 101.677,201.839 107.048,194.457 107.053 C 185.665 107.059,182.389 97.021,188.547 88.942 C 189.673 87.464,191.121 85.216,191.764 83.947 C 193.037 81.432,193.001 81.869,192.428 76.073 C 192.003 71.771,194.851 70.225,200.422 71.735 " stroke="none" fill="#6463fb" fill-rule="evenodd"></path></g></svg>