<svg id="svg" version="1.1" width="400" height="290.90909090909093" viewBox="0 0 400 290.90909090909093" xmlns="http://www.w3.org/2000/svg" xmlns:xlink="http://www.w3.org/1999/xlink" ><g id="svgg"><path id="path0" d="M0.000 145.455 L 0.000 290.909 200.000 290.909 L 400.000 290.909 400.000 145.455 L 400.000 0.000 200.000 0.000 L 0.000 0.000 0.000 145.455 M199.353 104.163 C 202.217 104.958,203.573 107.782,204.373 114.618 C 204.476 115.498,204.890 116.938,205.292 117.818 C 206.736 120.977,207.254 125.290,207.266 134.255 C 207.275 141.090,206.658 142.322,202.067 144.640 C 190.263 150.598,185.944 143.431,190.201 124.945 C 190.981 121.558,191.088 120.496,191.231 114.764 C 191.399 108.034,191.584 106.836,192.652 105.516 C 193.825 104.067,196.826 103.461,199.353 104.163 " stroke="none" fill="#6363fb" fill-rule="evenodd"></path><path id="path1" d="M194.473 104.292 C 191.841 105.225,191.437 106.531,191.231 114.764 C 191.088 120.496,190.981 121.558,190.201 124.945 C 185.944 143.431,190.263 150.598,202.067 144.640 C 206.658 142.322,207.275 141.090,207.266 134.255 C 207.254 125.290,206.736 120.977,205.292 117.818 C 204.890 116.938,204.476 115.498,204.373 114.618 C 203.295 105.407,200.260 102.242,194.473 104.292 " stroke="none" fill="#f7f8f8" fill-rule="evenodd"></path></g></svg>