<svg id="svg" version="1.1" width="400" height="290.90909090909093" viewBox="0 0 400 290.90909090909093" xmlns="http://www.w3.org/2000/svg" xmlns:xlink="http://www.w3.org/1999/xlink" ><g id="svgg"><path id="path0" d="M0.000 145.455 L 0.000 290.909 200.000 290.909 L 400.000 290.909 400.000 145.455 L 400.000 0.000 200.000 0.000 L 0.000 0.000 0.000 145.455 M202.508 152.377 C 203.642 152.969,204.302 153.575,204.941 154.610 L 205.818 156.030 205.830 161.288 C 205.842 167.073,205.918 167.592,207.224 170.764 C 208.823 174.649,208.523 181.686,206.639 184.482 C 204.967 186.964,197.403 187.964,193.886 186.170 C 189.927 184.150,188.579 178.761,190.103 171.055 C 190.614 168.475,190.825 166.436,190.830 164.040 C 190.849 154.347,196.149 149.054,202.508 152.377 " stroke="none" fill="#6463fb" fill-rule="evenodd"></path><path id="path1" d="M196.421 152.089 C 192.564 153.609,190.843 157.287,190.830 164.040 C 190.825 166.436,190.614 168.475,190.103 171.055 C 188.579 178.761,189.927 184.150,193.886 186.170 C 197.403 187.964,204.967 186.964,206.639 184.482 C 208.523 181.686,208.823 174.649,207.224 170.764 C 205.918 167.592,205.842 167.073,205.830 161.288 L 205.818 156.030 204.941 154.610 C 203.272 151.908,199.621 150.827,196.421 152.089 " stroke="none" fill="#f6f6f9" fill-rule="evenodd"></path></g></svg>