<svg id="svg" version="1.1" width="400" height="290.90909090909093" viewBox="0 0 400 290.90909090909093" xmlns="http://www.w3.org/2000/svg" xmlns:xlink="http://www.w3.org/1999/xlink" ><g id="svgg"><path id="path0" d="M0.000 145.455 L 0.000 290.909 200.000 290.909 L 400.000 290.909 400.000 145.455 L 400.000 0.000 200.000 0.000 L 0.000 0.000 0.000 145.455 M203.257 211.072 C 205.385 212.319,206.113 213.962,206.088 217.455 C 205.926 240.295,205.046 245.765,200.817 250.226 C 196.958 254.297,193.528 254.380,189.653 250.497 C 187.579 248.418,187.381 247.951,186.808 243.782 C 186.644 242.582,186.282 240.514,186.006 239.186 C 185.477 236.647,185.542 235.776,187.041 225.257 C 187.396 222.769,190.843 215.679,192.701 213.616 C 195.815 210.157,199.982 209.153,203.257 211.072 " stroke="none" fill="#6463fb" fill-rule="evenodd"></path><path id="path1" d="M197.513 210.417 C 193.373 211.583,187.881 219.367,187.041 225.257 C 185.542 235.776,185.477 236.647,186.006 239.186 C 186.282 240.514,186.644 242.582,186.808 243.782 C 187.381 247.951,187.579 248.418,189.653 250.497 C 193.528 254.380,196.958 254.297,200.817 250.226 C 205.046 245.765,205.926 240.295,206.088 217.455 C 206.128 211.930,202.553 208.996,197.513 210.417 " stroke="none" fill="#f9f9fa" fill-rule="evenodd"></path></g></svg>