<svg id="svg" version="1.1" width="400" height="290.90909090909093" viewBox="0 0 400 290.90909090909093" xmlns="http://www.w3.org/2000/svg" xmlns:xlink="http://www.w3.org/1999/xlink" ><g id="svgg"><path id="path0" d="M0.000 145.455 L 0.000 290.909 92.436 290.908 L 184.873 290.908 182.400 289.515 C 175.695 285.737,173.529 283.787,171.369 279.583 C 169.487 275.919,168.661 275.126,165.699 274.150 C 160.071 272.294,157.964 270.272,157.964 266.730 C 157.964 262.750,160.462 261.270,167.305 261.197 C 174.230 261.124,175.341 261.616,179.235 266.485 C 179.814 267.209,181.660 268.750,183.338 269.908 C 185.015 271.067,187.552 272.993,188.976 274.190 C 195.789 279.917,199.440 279.922,203.730 274.210 C 212.207 262.924,219.131 257.433,224.853 257.461 C 229.007 257.481,231.441 261.443,229.988 265.818 C 228.953 268.933,223.032 277.006,219.994 279.443 C 219.237 280.051,217.178 281.949,215.418 283.662 C 212.083 286.907,209.004 289.500,207.636 290.215 C 207.196 290.445,206.836 290.695,206.836 290.771 C 206.836 290.847,250.298 290.909,303.418 290.909 L 400.000 290.909 400.000 145.455 L 400.000 0.000 200.000 0.000 L 0.000 0.000 0.000 145.455 " stroke="none" fill="#6363fb" fill-rule="evenodd"></path><path id="path1" d="M221.673 258.006 C 216.418 259.716,210.818 264.773,203.730 274.210 C 199.440 279.922,195.789 279.917,188.976 274.190 C 187.552 272.993,185.015 271.067,183.338 269.908 C 181.660 268.750,179.814 267.209,179.235 266.485 C 175.341 261.616,174.230 261.124,167.305 261.197 C 160.462 261.270,157.964 262.750,157.964 266.730 C 157.964 270.272,160.071 272.294,165.699 274.150 C 168.661 275.126,169.487 275.919,171.369 279.583 C 173.522 283.773,176.094 286.066,182.716 289.699 L 184.922 290.909 195.740 290.909 L 206.557 290.909 207.788 290.135 C 209.681 288.943,211.622 287.294,215.273 283.773 C 217.113 281.998,219.237 280.050,219.994 279.443 C 223.031 277.008,228.953 268.934,229.988 265.818 C 231.889 260.094,227.611 256.074,221.673 258.006 " stroke="none" fill="#f8f8f9" fill-rule="evenodd"></path></g></svg>